<svg xmlns="http://www.w3.org/2000/svg" xmlns:xlink="http://www.w3.org/1999/xlink" width="16" height="16" viewBox="0 0 16 16">
  <defs>
    <clipPath id="clip-autoversioning-icon-mask">
      <rect width="16" height="16"/>
    </clipPath>
  </defs>
  <g id="autoversioning-icon-mask" clip-path="url(#clip-autoversioning-icon-mask)">
    <path d="M15.738-43.389l.255-1.429a.429.429,0,0,0-.422-.5H12.9l.522-2.925a.429.429,0,0,0-.422-.5H11.549a.445.445,0,0,0-.422.353l-.549,3.075H7.055l.522-2.925a.429.429,0,0,0-.422-.5H5.7a.445.445,0,0,0-.422.353l-.549,3.075H1.908a.445.445,0,0,0-.422.353L1.231-43.54a.429.429,0,0,0,.422.5H4.325l-.816,4.571H.684a.445.445,0,0,0-.422.353L.007-36.682a.429.429,0,0,0,.422.5H3.1l-.522,2.925a.429.429,0,0,0,.422.5H4.451a.445.445,0,0,0,.422-.353l.549-3.075H8.945l-.522,2.925a.429.429,0,0,0,.422.5H10.3a.445.445,0,0,0,.422-.353l.549-3.075h2.825a.445.445,0,0,0,.422-.353l.255-1.429a.429.429,0,0,0-.422-.5H11.675l.816-4.571h2.825A.445.445,0,0,0,15.738-43.389ZM9.353-38.464H5.831l.816-4.571H10.17Z" transform="translate(0 48.75)" fill="currentColor"/>
  </g>
</svg>
