<?xml version="1.0" encoding="utf-8"?>
<!-- Generator: Adobe Illustrator 22.1.0, SVG Export Plug-In . SVG Version: 6.00 Build 0)  -->
<svg version="1.1" id="Capa_1" xmlns="http://www.w3.org/2000/svg" xmlns:xlink="http://www.w3.org/1999/xlink" x="0px" y="0px"
	 viewBox="0 0 99 99" style="enable-background:new 0 0 99 99;" xml:space="preserve">
<style type="text/css">
	.st0{fill:#AA00BB;}
	.st1{fill:#FFFFFF;}
</style>
<circle class="st0" cx="49.5" cy="49.5" r="49.5"/>
<path class="st1" d="M74.7,40.9l0.8-4.6c0.2-0.9-0.5-1.6-1.4-1.6h-8.7l1.7-9.5c0.2-0.9-0.5-1.6-1.4-1.6H61c-0.7,0-1.3,0.5-1.4,1.1
	l-1.8,10H46.4l1.7-9.5c0.2-0.9-0.5-1.6-1.4-1.6H42c-0.7,0-1.3,0.5-1.4,1.1l-1.8,10h-9.2c-0.7,0-1.3,0.5-1.4,1.1l-0.8,4.6
	c-0.2,0.9,0.5,1.6,1.4,1.6h8.7l-2.7,14.9h-9.2c-0.7,0-1.3,0.5-1.4,1.1l-0.8,4.6c-0.2,0.9,0.5,1.6,1.4,1.6h8.7l-1.7,9.5
	c-0.2,0.9,0.5,1.6,1.4,1.6H38c0.7,0,1.3-0.5,1.4-1.1l1.8-10h11.4l-1.7,9.5c-0.2,0.9,0.5,1.6,1.4,1.6H57c0.7,0,1.3-0.5,1.4-1.1
	l1.8-10h9.2c0.7,0,1.3-0.5,1.4-1.1l0.8-4.6c0.2-0.9-0.5-1.6-1.4-1.6h-8.7l2.7-14.9h9.2C74,42.1,74.5,41.6,74.7,40.9z M53.9,56.9
	H42.5l2.7-14.9h11.4L53.9,56.9z"/>
</svg>
