<svg xmlns="http://www.w3.org/2000/svg" xmlns:xlink="http://www.w3.org/1999/xlink" width="100" height="100" viewBox="0 0 100 100">
  <defs>
    <style>
      .cls-1 {
        clip-path: url(#clip-autoversioning);
      }

      .cls-2 {
        fill: #990080;
      }

      .cls-3 {
        fill: #fff;
      }
    </style>
    <clipPath id="clip-autoversioning">
      <rect width="100" height="100"/>
    </clipPath>
  </defs>
  <g id="autoversioning" class="cls-1">
    <rect class="cls-3" width="100" height="100"/>
    <circle id="Ellipse_1" data-name="Ellipse 1" class="cls-2" cx="50" cy="50" r="50"/>
    <path id="Pfad_1" data-name="Pfad 1" class="cls-3" d="M51.641-31.159l.837-4.687A1.406,1.406,0,0,0,51.093-37.5H42.326l1.714-9.6a1.406,1.406,0,0,0-1.384-1.653H37.894a1.459,1.459,0,0,0-1.384,1.159L34.708-37.5H23.149l1.714-9.6a1.406,1.406,0,0,0-1.384-1.653H18.717a1.459,1.459,0,0,0-1.384,1.159L15.531-37.5H6.262a1.459,1.459,0,0,0-1.384,1.159L4.04-31.653A1.406,1.406,0,0,0,5.424-30h8.767L11.513-15H2.244A1.459,1.459,0,0,0,.859-13.841L.022-9.153A1.406,1.406,0,0,0,1.407-7.5h8.767L8.46,2.1A1.406,1.406,0,0,0,9.844,3.75h4.762A1.459,1.459,0,0,0,15.99,2.591L17.792-7.5H29.351L27.637,2.1A1.406,1.406,0,0,0,29.021,3.75h4.762a1.459,1.459,0,0,0,1.384-1.159L36.969-7.5h9.269a1.459,1.459,0,0,0,1.384-1.159l.837-4.687A1.406,1.406,0,0,0,47.075-15H38.309l2.678-15h9.269A1.459,1.459,0,0,0,51.641-31.159ZM30.69-15H19.131L21.81-30H33.369Z" transform="translate(24 72.75)"/>
  </g>
</svg>
